<?xml version="1.0" encoding="UTF-8"?>
<!-- Created with Inkscape (http://www.inkscape.org/) -->
<svg width="210mm" height="297mm" version="1.1" viewBox="0 0 210 297" xmlns="http://www.w3.org/2000/svg">
 <g stroke="#000" stroke-opacity=".59799" stroke-width=".26458">
  <path d="m23.213 162.72c0.02907-0.39263 0.07142-0.78449 0.0872-1.1779 0.20801-5.1858 0.04193-10.393-0.07795-15.578-0.29449-8.2276-0.46298-16.458-0.5751-24.69-0.07828-6.9194-0.06899-13.839-0.11703-20.759-0.16042-5.636 0.1939-11.26 0.67083-16.872 0.40085-4.0696 0.64658-8.1685 1.4605-12.183 0.1208-0.37264 0.20322-0.75999 0.36241-1.1179 0.91154-2.0495 3.0162-2.3145 4.9755-2.6843 6.529-0.92173 13.15-0.98428 19.732-1.1091 6.5761-0.04282 13.151-0.14042 19.726-0.26853 4.9988-0.07265 10.006-0.18391 15.002 0.08795 2.5436 0.13842 5.2112 0.41119 7.747 0.64722 4.7505 0.45476 9.4577 1.2622 14.202 1.7662 3.1054 0.3299 4.1269 0.37079 7.2505 0.58563 7.8 0.45145 15.619 0.2994 23.426 0.18646 6.3559-0.10706 12.712-0.1717 19.069-0.207 5.1761-0.02334 10.352-0.02222 15.529-0.02215 1.8756 2.07e-4 3.7513 7.94e-4 5.6269-0.0026 0.0838-1.5e-4 1.7854-0.02625 2.0379 0.03894 0.12375 0.03195 0.193 0.16759 0.28951 0.25139 0.19292 0.44462 0.38096 0.85032 0.50622 1.3317 0.66454 2.5536 0.73052 5.2518 0.87708 7.8701 0.11903 4.0828 0.0167 8.1699-0.14073 12.25-0.132 3.0711-0.22915 6.1443-0.52058 9.2052-0.28937 2.4971-0.61571 4.9897-0.91938 7.4852-0.49046 4.0462-1.0058 8.0891-1.4691 12.139-0.64769 5.2719-1.0204 10.569-1.2228 15.875-0.16239 5.0089-0.11225 10.021-0.22379 15.031-0.10608 4.6518-0.48235 9.2903-0.75032 13.934-0.16166 2.6355-0.27858 5.2737-0.32391 7.9139-0.014 1.3173 2.4e-4 0.0763-0.0144 1.1376-2e-3 0.11094 1e-3 0.22197-4e-3 0.33281-2e-3 0.0463-0.026 0.18328-0.0163 0.13799 0.15885-0.74279-0.0729-0.25681 0.63699-1.0718-0.0147-0.0106-0.026-0.0339-0.044-0.0318-2.0679 0.23933 1.1023 2e-3 -1.9089 0.26549-2.0607 0.18007-3.9361 0.0917-5.995-0.0533-4.3034-0.41339-8.4914-1.5084-12.657-2.6122-1.5441-0.39151-3.099-0.74433-4.6666-1.0288-0.86906-0.15772-1.7465-0.2358-2.6009-0.4593-0.0582-0.0733-0.14133-0.13245-0.17471-0.21992-0.0553-0.14504-0.055-0.30558-0.084-0.45808-0.26232-1.3795-0.27816-1.2482-0.41065-2.8813-0.14601-1.7998-0.16374-3.2033-0.22018-5.0306-0.16664-7.3371-0.067-14.677-0.25558-22.013-0.19593-6.1252-0.88484-12.219-1.3283-18.328-0.16468-2.7095-0.34742-5.4217-0.30785-8.138 0.0176-1.2098 0.084-2.3095 0.14542-3.5147 0.0847-2.2101 0.35207-4.4157 0.37451-6.6279-0.0438-1.2452-0.43924-2.4425-1.1769-3.4432-1.2588-1.3703-3.2397-1.4631-4.9759-1.6475-4.1861-0.32811-8.3882-0.18064-12.58-0.09604-4.7876 0.13038-9.5777 0.09485-14.364-0.05954-4.3935-0.18146-8.7637-0.67783-13.135-1.1261-4.9587-0.50882-9.9075-0.42708-14.87-0.07701-3.3448 0.31478-6.6896 0.6133-10.045 0.7916-2.3559 0.11938-4.7153 0.09394-7.073 0.13356-2.5204 0.10398-5.0407 0.21076-7.5604 0.32874-0.2163 0.11163-1.1819-0.05743-1.3987 0.09399-0.27397 0.19129-0.51254 0.42885-0.7688 0.64328-1.1194 3.6966-1.7604 7.5128-2.3094 11.329-0.64842 4.9995-0.85465 10.039-0.9185 15.075-0.0348 5.0015 0.03847 10.003-0.03353 15.004-0.13755 4.4043-0.32909 8.806-0.43268 13.211-0.08456 3.3894 0.12077 6.7749 0.4038 10.15 0.08982 1.2193 0.24567 2.4325 0.34888 3.6506 0.0036 0.0642-0.0026 0.25565 0.01082 0.19271 0.03337-0.15723 0.03338-0.31973 0.05007-0.47959 0.11702-0.13885 0.30541-0.24079 0.35107-0.41654 0.02029-0.0781-0.16134-2e-3 -0.24201-3e-3 -0.87367-8e-3 -0.32913 6e-3 -1.3758-0.0404-2.586-0.15049-5.1606-0.44015-7.7358-0.7118-3.092-0.33978-6.2022-0.43441-9.3098-0.49472-1.8935-0.0473-3.7951 5e-3 -5.6825-0.18613-1.0362-0.10486-1.5971-0.21803-2.6211-0.39229-1.9279-0.36346-3.813-0.90988-5.7028-1.4288-0.75038-0.22211-1.5203-0.35022-2.3001-0.39866-0.42627-0.0373-0.85649-8e-3 -1.2818-0.0568 0.04106 0.0191-0.12152-0.027-0.10494 4e-3 0.09359 0.17392 0.13463-0.17203 0.52776 0.59767 0.028 0.0548-0.10921-0.0568-0.16381-0.0852-0.54614-0.29263-0.28746-0.11368-0.77037-0.54494-0.03021-0.13085-0.21525-0.0881-0.18504 0.0427-0.2616 0.5514-0.09197 0.30484-0.50558 0.74195-0.03734 0.0768-0.13894 0.14934-0.11202 0.23038 0.21225 0.6391 0.47194 0.87803 1.0415 0.99877 0.46441 0.0682 0.93293 0.0577 1.4006 0.0889 0.64749 0.0612 1.2864 0.17239 1.9111 0.35847 1.9529 0.53622 3.9029 1.092 5.8943 1.4716 1.2568 0.22312 1.5317 0.29381 2.8085 0.43161 1.9287 0.20816 3.8693 0.18282 5.8061 0.21552 3.048 0.0589 6.0976 0.16038 9.1307 0.48743 2.6182 0.27619 5.2357 0.57439 7.8651 0.72528 1.1578 0.0487 3.5863 0.33546 3.3481-1.5503-0.13541-1.2048-0.25384-2.4117-0.35772-3.6195-0.27717-3.3027-0.47711-6.6146-0.40107-9.931 0.10366-4.412 0.2974-8.8206 0.4253-13.232 0.06345-5.0019-0.01124-10.004 0.01029-15.006 0.06234-4.9505 0.25428-9.9045 0.87958-14.821 0.5002-3.5955 1.1224-7.1658 2.0511-10.679-0.20821 0.12562-0.41471 0.25412-0.62463 0.37685-0.0087 0.0051-0.03986 0.0057-0.02976 0.0058 0.39916 0.0035 0.79825-0.05735 1.1973-0.05573 2.4967-0.1169 4.9936-0.24402 7.4926-0.29958 2.3856-0.02003 4.7727 0.0016 7.1566-0.10529 3.3674-0.17933 6.7235-0.50006 10.081-0.80554 4.8322-0.35046 9.6841-0.45022 14.506 0.12901 4.4209 0.46903 8.8382 1.0071 13.284 1.1829 4.8245 0.15519 9.6525 0.21597 14.478 0.07568 4.1022-0.0894 8.2134-0.23775 12.311 0.06924 0.92502 0.09616 1.2013 0.10847 2.0702 0.25404 0.52263 0.08755 1.093 0.16593 1.5051 0.52716 0.5328 0.60913 0.82603 1.3418 0.85647 2.1571-0.0156 2.183-0.25198 4.3588-0.35612 6.5381-0.23708 3.965-0.26934 7.9364 0.0403 11.9 0.39297 6.0744 0.9511 12.14 1.1106 18.228 0.068 7.3494-0.0871 14.699 0.0355 22.049 0.0517 1.7348 0.0802 3.4956 0.21841 5.2278 0.13213 1.6559 0.23771 3.6466 1.3374 5.0146 0.25039 0.31151 0.63362 0.48731 0.95044 0.73096 0.31197 0.1266 0.61382 0.28182 0.93593 0.37979 0.64233 0.19538 1.3187 0.25347 1.9768 0.38635 1.499 0.30264 2.9888 0.6491 4.4622 1.06 4.3374 1.2169 8.7082 2.3943 13.207 2.827 3.1392 0.22277 6.3684 0.39707 9.4412-0.43215 0.30303-0.26783 0.66781-0.47892 0.90908-0.80349 0.4064-0.54671 0.1506-1.7904 0.24569-2.4204 0.08-2.6038 0.18488-5.2066 0.35051-7.8066 0.27945-4.6811 0.64642-9.3584 0.75102-14.048 0.10291-4.9983 0.0523-9.9982 0.18796-14.996 0.14615-5.2349 0.33947-10.47 0.98329-15.672 0.41634-4.0466 0.9106-8.0843 1.3316-12.13 0.28485-2.5179 0.61985-5.0289 0.91794-7.545 0.29435-3.1106 0.39811-6.2335 0.53439-9.3541 0.16018-4.1638 0.26463-8.3344 0.13862-12.501-0.1241-2.2639-0.21739-4.5543-0.63445-6.7892-0.21089-1.1301-0.51946-2.5281-1.195-3.5124-0.29729-0.43323-0.7381-0.748-1.1071-1.122-0.42088-0.1584-0.82489-0.37214-1.2626-0.47521-0.30274-0.07129-1.9555-0.05749-2.1732-0.05802-1.8759-0.0046-3.7518-0.0049-5.6276-0.0051-5.181-8.2e-5 -10.362-0.0013-15.543 0.02217-6.3671 0.03537-12.734 0.10743-19.1 0.25774-7.7373 0.15932-15.484 0.34984-23.217-0.08836-3.3049-0.21264-3.8637-0.22624-7.1503-0.52622-4.7662-0.43505-9.5041-1.121-14.268-1.5781-1.3045-0.11206-2.6076-0.24364-3.9136-0.33618-6.3492-0.4499-12.718-0.42939-19.078-0.27951-6.577 0.14356-13.155 0.26224-19.732 0.40048-6.69 0.20815-13.411 0.38715-20.039 1.3858-1.2563 0.28771-2.3315 0.43704-3.4798 1.0151-1.6877 0.84963-2.6408 2.3613-3.0912 4.1485-0.88314 4.0684-1.119 8.2401-1.5704 12.371-0.48938 5.6635-0.89154 11.337-0.71579 17.027 0.0308 6.9243 0.0391 13.849 0.11716 20.773 0.1123 8.2425 0.31949 16.483 0.72689 24.717 0.14881 3.6699 0.18275 4.0862 0.26391 7.6635 0.05943 2.6193 0.05704 5.2459 0.16206 7.8641 0.01578 0.39339 0.05814 0.78525 0.0872 1.1779 0 0.7564 1.0697 0.7564 1.0697 0z"/>
  <g fill="#00f">
   <path d="m84.804 123.06c-3.1181 1.0132-5.8781 3.0326-7.9955 5.5218-0.54266 0.63795-1.0013 1.3428-1.502 2.0142-1.3183 2.1253-2.6322 4.4054-2.8778 6.9496-0.10163 1.0527 0.03634 1.5666 0.18268 2.6201 0.7322 2.4993 1.9509 4.9549 3.8697 6.7639 0.29262 0.27588 0.62262 0.50921 0.93393 0.76381 0.29752 0.18826 0.59189 0.38159 0.89256 0.56477 0.26905 0.16391 0.55271 0.30383 0.81634 0.47632 0.88045 0.5761 1.6598 1.2968 2.5303 1.887 0.3348 0.22704 0.68764 0.42628 1.0315 0.63942 2.2563 1.3225 4.455 0.83372 6.8836 1.0236 0.44643 0.0349 0.88753 0.11986 1.3313 0.17979 1.8321 0.26574 3.6058 0.9815 5.4786 0.94976 1.0728-0.0182 2.3102-0.27293 3.3626-0.45474 1.8419-0.45021 3.7356-0.47213 5.6188-0.46044 0.41096 3e-3 0.82254 0.0346 1.2329 0.0115 0.4531-0.0255 0.90157-0.10476 1.3524-0.15714 2.021-0.35513 3.7784-1.4041 5.5445-2.3828 1.2706-0.7041 1.2679-0.69404 2.5189-1.3511 1.6165-0.78523 3.2998-1.573 4.4254-3.0441 0.94788-1.2388 1.2266-2.1464 1.8336-3.5702 0.14062-0.64499 0.3552-1.2782 0.42185-1.935 0.1733-1.7078-0.25062-3.3186-1.8364-4.2084-0.9514-0.53385-2.0198-0.58487-3.0629-0.72849-2.4341 7e-3 -3.8408-1.7061-5.7648-2.8699-0.41592-0.25159-0.85942-0.45449-1.2891-0.68173-1.7758-0.64304-3.6403-0.62498-5.4988-0.58723-1.2381 0.0251-2.118 0.15914-3.3365-0.0441-0.46363-0.0773-0.90597-0.25094-1.359-0.37641-1.6663-0.6344-3.0301-1.8195-4.6401-2.5648-1.1404-0.5279-1.362-0.52669-2.5673-0.83594-1.5742-0.36723-3.2054-0.17377-4.7879-0.46237-0.97016-0.17693-1.1221-0.28842-2.049-0.64963-1.4536-0.67202-2.8282-1.5033-4.1336-2.4286-0.27513-0.19501-0.52027-0.43575-0.81548-0.59876-0.25573-0.14121-0.54769-0.20344-0.82154-0.30516-0.20217-0.11567-0.40435-0.23134-0.60652-0.347-0.03384-0.0448-0.09717 3e-3 -0.06333 0.0478 0.07486 0.25092 0.14972 0.50183 0.22458 0.75275 0.14458 0.30901 0.22186 0.65964 0.43374 0.92703 0.22585 0.28504 0.5548 0.47107 0.84633 0.68848 1.3723 1.0234 2.886 1.8518 4.4272 2.5876 1.0838 0.41089 1.2422 0.52424 2.3638 0.74628 1.526 0.30211 3.0875 0.25297 4.619 0.50491 0.99728 0.23692 1.304 0.26518 2.2575 0.67416 1.7238 0.73942 3.1443 2.0383 4.9289 2.661 1.5174 0.41297 1.7382 0.5607 3.3424 0.63384 0.58222 0.0265 1.1653-0.0286 1.7481-0.0377 1.5995-0.025 3.2176-0.0964 4.7652 0.39433 0.38142 0.197 0.77364 0.37437 1.1443 0.59101 2.1974 1.2845 3.683 2.9268 6.4348 3.0513 0.86336 0.11172 2.4538 0.17219 3.107 0.88944 0.98322 1.0797 0.48018 2.7297 0.23492 3.9508-0.51932 1.2543-0.73093 2.0139-1.553 3.0889-1.0328 1.3505-2.5806 2.0575-4.0637 2.7761-1.4679 0.77648-1.0449 0.54547-2.5469 1.3707-1.2347 0.67838-2.4645 1.4243-3.8058 1.8809-0.38693 0.13172-0.79041 0.20861-1.1856 0.31291-0.3902 0.0416-0.77858 0.10696-1.1706 0.12477-0.85887 0.039-1.7194-0.0444-2.579-0.0341-1.53 0.0184-3.0508 0.17344-4.5449 0.51263-0.82266 0.14185-2.1506 0.40288-3.0027 0.42867-1.8483 0.0559-3.5855-0.72615-5.3995-0.94611-0.4958-0.0545-0.98961-0.13185-1.4874-0.16353-2.062-0.13124-4.2315 0.29445-6.1046-0.81425-0.30588-0.19645-0.61951-0.38133-0.91765-0.58934-1.9453-1.3572 0.1406-2e-3 -1.8062-1.368-0.91706-0.64343-0.79247-0.49549-1.688-1.0117-0.25335-0.14604-0.50026-0.30298-0.75039-0.45447-0.74266-0.58821-0.97988-0.71609-1.6082-1.4847-1.2594-1.5407-2.0726-3.4017-2.8554-5.2112-0.13406-0.36199-0.32224-0.70833-0.40218-1.086-0.52181-2.4652 1.4308-5.6323 2.5991-7.6263 0.46928-0.65161 0.90574-1.3282 1.4078-1.9548 1.949-2.4326 4.4405-4.472 7.4316-5.449 0.48561-0.0695 0.38728-0.75628-0.09833-0.68675z"/>
   <path d="m89.137 158.23c-0.15798 0.29121-0.32541 0.57747-0.47393 0.87361-0.98898 1.9719-1.9126 3.9767-2.9249 5.9377-0.70066 1.3574-1.5852 2.9515-2.3262 4.3022-0.29182 0.50613-0.55955 1.0269-0.87546 1.5184-0.18581 0.28905-0.38997 0.56943-0.62671 0.81849-0.0254 0.0267-0.12649-0.0642-0.08961-0.0649 0.3227-6e-3 0.70383 0.23458 0.96709 0.0479 0.23265-0.16502 0.09071-0.56353 0.15252-0.84199 0.117-0.52715 0.2558-1.0492 0.3837-1.5739 0.64416-2.3473 1.3822-4.6723 2.1942-6.9673 0.59047-1.6688 0.24037-0.50728 0.6475-1.9614 0.0087-0.24147 0.08466-0.48998 0.02614-0.72443-0.34832-1.3958-1.842-1.1873-2.8629-0.80279-0.47791 0.0964-0.677 0.0961 0.59022 1.037 0.11384 0.0845 0.24749-0.139 0.37598-0.19896 0.87748-0.40949 1.7717-0.63289 2.7115-0.85266 1.896-0.38889 3.0288 0.41549 4.5858 1.2822 0.27928 0.0928 0.55855 0.18553 0.83782 0.27829 0.02841 0.0484 0.09687 8e-3 0.06846-0.0402 7e-3 -0.37113 0.014-0.74225 0.02098-1.1134-0.17176-0.28087-0.29874-0.59463-0.51529-0.84262-1.0269-1.176-2.7867-1.5627-4.2715-1.3729-0.39963 0.0511-0.78496 0.18192-1.1774 0.27289-1.0096 0.35384-2.0191 0.69705-2.9557 1.2237-0.19124 0.10754-0.53036 0.13784-0.55363 0.35601-0.04811 0.4509 0.18351 0.89684 0.37618 1.3073 0.03177 0.0677 0.1479-0.0222 0.22184-0.0332 0.11967-9e-3 0.95103-0.0495 1.0049-0.0968 0.04753-0.0417-0.0474-0.12019-0.04859-0.18343-0.0013-0.0738-0.0013-0.27818 0.04101-0.21773 0.06073 0.0865 0.0186 0.21062 0.02792 0.31593-0.79333 3.033-1.9737 5.951-2.809 8.9726-0.03939 0.15732-0.75267 2.6677-0.57767 3.0784 1.2403 2.9105 2.9612-1.0326 3.51-1.8649 2.0213-3.6999 4.098-7.454 5.183-11.555 0.22239-0.59272-0.61585-0.90722-0.83823-0.3145z"/>
   <path d="m68.57 185.77c0.06498-0.83099 0.16568-2.3048 0.99099-2.7742 0.47131-0.26806 0.29708 0.1549 0.27201 0.27577 0.25378 0.93871 0.32325 2.0317-0.21316 2.8955-0.07518 0.12105-0.194 0.20877-0.29101 0.31315-0.48979 0.36537-1.0759 0.1861-1.513 0.68542-0.18271 0.20872-0.26427 0.48779-0.39641 0.73169-0.36296 1.4351-0.5056 3.0083-0.07991 4.4515 0.08336 0.28261 0.21757 0.54766 0.32636 0.8215 0.19838 0.25468 0.35826 0.54472 0.59515 0.76405 0.959 0.88791 2.3382 0.95178 3.5224 0.5545 0.27173-0.0912 0.52278-0.23514 0.78418-0.3527 0.54154-0.30971 1.1288-0.64206 1.3224-1.285 0.0551-0.18303 0.04501-0.37963 0.06752-0.56944 0.08342-0.0668-0.01106-0.1848-0.09449-0.11798-0.783-0.1965-1.2841-0.16213-2.0279 0.19932-0.78153 0.28135-1.6773 0.68575-2.3758 0.033-0.07525-0.15246-0.17052-0.29658-0.22577-0.45738-0.37356-1.0873-0.24874-2.2812-0.1386-3.3988-0.02905-0.0249-0.04966-0.0671-0.08716-0.0746-0.06103-0.0122-0.22817 0.0654-0.18566 0.02 0.06374-0.0682 2.0018-0.63678 1.8078-0.96981 0.1758-0.23845 0.38586-0.45509 0.5274-0.71534 0.64938-1.194 0.77046-2.9983 0.0048-4.177-0.20607-0.31725-0.54352-0.52636-0.81528-0.78954-0.36645-0.0411-0.74007-0.20639-1.0993-0.12331-0.95365 0.22056-1.3419 1.6042-1.4879 2.3952-0.13492 0.73128-0.07446 1.0892-0.03146 1.7998 0.09563 0.59529 0.9375 0.46005 0.84187-0.13524z"/>
   <path d="m76.571 182.87c0.29714 1.8785 0.65154 3.7475 1.0898 5.5984 0.16171 0.68299 0.58312 2.3882 0.86784 3.117 0.12484 0.31955 0.31239 0.61089 0.46859 0.91633 0.34321 0.16748 0.65922 0.59538 1.0296 0.50244 1.2919-0.32415 1.652-1.6411 2.0111-2.6648 0.59881-1.707 0.94963-3.4549 1.2379-5.2342 0.04249-1.7725 0.05706-0.93609-0.02178-2.5095 0.03011-0.1111-0.12701-0.15368-0.15712-0.0426-0.86802 1.3476-0.45146 0.61083-1.218 2.2279-0.5013 1.6373-0.91589 3.3037-1.4514 4.9301-0.13446 0.40838-0.4136 0.78162-0.44578 1.2104-0.02188 0.29166 0.55431 0.40931 0.41542 0.77286-0.12943-0.18982-0.29814-0.35813-0.38831-0.56944-0.32172-0.75398-0.63205-2.2724-0.79171-2.9955-0.40878-1.8513-0.76565-3.714-1.2042-5.5587-0.21166-1.0197-1.6537-0.72034-1.442 0.29933z"/>
   <path d="m87.978 189.11c0.31918-1.2185 1.0884-3.9982 2.5624-4.2832 0.13276-0.0257 0.25547 0.0887 0.38321 0.13305 0.56558 0.48538 0.98549 1.3947 0.47444 2.0772-0.07649 0.10214-0.19326 0.16668-0.28989 0.25002-0.52593 0.27682-1.1082 0.0572-1.6506 0.30536-0.67332 0.30813-0.67461 0.47537-1.1392 1.0782-0.59085 1.0828-0.80968 2.2947-0.57397 3.5125 0.05023 0.25954 0.1055 0.5241 0.22224 0.76128 0.12649 0.25696 0.33157 0.46709 0.49736 0.70064 0.25839 0.14996 0.4923 0.35378 0.77517 0.4499 0.75221 0.25562 1.7684 0.0567 2.4162-0.38608 0.2042-0.13959 0.34922-0.3504 0.52384-0.52559 0.06405-0.0243 0.02963-0.11491-0.03442-0.0906-0.87932-0.10343-1.7815-0.0161-2.6342-0.29844-0.09002-0.0811-0.20889-0.13877-0.27006-0.24337-0.51509-0.88076-0.17461-2.3146 0.14145-3.1982 0.0603-0.14101 0.0996-0.293 0.18089-0.42305 0.23804-0.38082 0.71662-0.3599 1.0948-0.47403 0.553-0.16686 0.57948-0.22493 1.0886-0.52413 0.1564-0.16721 0.34152-0.31158 0.46919-0.50164 0.65397-0.97351 0.55033-2.3061-0.36015-3.1013-0.24953-0.21794-0.57907-0.32208-0.8686-0.48312-0.33898 0.0179-0.69593-0.0566-1.0169 0.0537-1.3915 0.47839-2.2593 2.7604-2.5816 4.0372-0.09214 0.36506-0.12719 0.7422-0.19079 1.1133-0.04266 0.55195 0.7379 0.61228 0.78057 0.0603z"/>
   <path d="m96.318 184.18c0.28902 2.5789 0.46974 5.1696 0.77225 7.7469 0.21354 0.58685 0.19464 0.94141 1.3251 0.24038 0.23521-0.14586 0.21508-0.51008 0.31716-0.76733 0.13193-0.33247 0.24957-0.67056 0.38481-1.0017 0.53564-1.3116 0.45072-1.0717 1.1341-2.3535 0.2774-0.39427 1.2937-2.2606 1.9831-2.1698 0.12235 0.0161-0.1053 0.22489-0.13545 0.34455-0.11903 0.47235 0.0532 0.63512 0.22111 1.1748 0.34017 1.3849 0.53507 2.8099 1.0018 4.1621 0.14038 0.40669 0.31384 0.80143 0.45475 1.2079-2e-3 0.0561 0.0768 0.0596 0.0793 4e-3 0.16665-0.38824 0.39646-0.88542 0.48622-1.2888 0.34453-1.5486 0.0497-3.1795-0.32762-4.687-0.31303-0.81362-0.53227-1.8799-1.4816-2.2817-1.7317-0.73302-2.7588 1.9319-3.3958 2.9724-0.54987 1.1502-1.0422 2.2974-1.4868 3.4919-0.07095 0.19064-0.32822 0.40774-0.20974 0.57309 0.16529 0.23066 1.1088 0.60463 0.81026 0.26121-0.22395-2.6146-0.36639-5.248-0.89301-7.8244-0.13827-0.73529-1.1781-0.53975-1.0399 0.19553z"/>
   <path d="m106.55 185.48c0.92882-0.0682 1.9744 0.0416 2.8858-0.15059 0.65318-0.13772 1.2852-0.49258 1.876-0.78473 0.056-4e-3 0.051-0.0828-5e-3 -0.0792-0.62038-0.21474-1.2945-0.48739-1.9565-0.54423-0.87798-0.0754-1.9714 0.14964-2.8659 0.17281-0.98002 0.0464-0.91437 1.4324 0.0656 1.386z"/>
   <path d="m109.1 181.09c-0.0758 0.63168-0.18114 1.2605-0.22734 1.895-0.0751 1.0314-0.1365 4.2958-0.1464 5.2666-0.0142 1.3916-0.0276 3.5433 0.0873 4.9632 0.0524 0.64794 0.16968 1.289 0.25452 1.9335 0.27154 1.7147 0.66248 2.062 2.0355 2.9191 0.17702 0.16781 0.41433-0.0825 0.23732-0.25033-0.11471-0.1902-0.27814-0.35852-0.34413-0.5706-0.22871-0.73495 0.0167-1.5737-0.38097-2.2775-0.0597-0.60354-0.14232-1.2052-0.17926-1.8106-0.0871-1.4273-0.0802-3.4811-0.071-4.8803 7e-3 -1.0238 0.0721-4.1705 0.0415-5.2534-0.0178-0.63016-0.0865-1.2579-0.12969-1.8868 0.0339-0.83245-1.1434-0.8803-1.1772-0.0479z"/>
   <path d="m121.82 184.12c-0.23788 0.0892-0.48896 0.14904-0.71365 0.26764-1.0541 0.55635-2.0675 1.5858-2.2004 2.8192-0.0327 0.30326 0.0404 0.60869 0.0606 0.91303 0.0549 0.90025 1.4864 2.2861 1.4341 3.1056-6e-3 0.0986-0.0898 0.17588-0.13475 0.26381-0.26077 0.39184-0.73508 0.53366-1.0752 0.83581-0.43774 0.38893-0.50083 0.60899-0.78397 1.1193-0.0538 0.0161-0.0311 0.0921 0.0227 0.0761 0.25652 0.0974 0.49738 0.25753 0.76958 0.29207 0.94648 0.12009 1.9281-0.56852 2.4263-1.3223 0.18113-0.27405 0.24211-0.61076 0.36316-0.91614-0.0258-0.30043-5e-3 -0.60867-0.0773-0.90131-0.26284-1.0578-1.3499-1.6598-1.6767-2.6882-0.0294-0.16065-0.0867-0.31865-0.0882-0.48197-0.0105-1.1423 1.3332-1.7271 2.0985-2.3128 0.7565-0.30036 0.33172-1.3702-0.42478-1.0698z"/>
  </g>
  <g fill="#f00">
   <path d="m161.91 132.85c-0.28392 0.0346-0.57314 0.0391-0.85174 0.10387-1.672 0.38851-3.2524 1.4886-4.4572 2.6772-0.40051 0.39515-0.75232 0.83679-1.1285 1.2552-2.155 2.7417-3.0765 5.6306-3.6715 9.0057-0.1841 1.6416-0.13968 3.3489 0.61783 4.8584 0.52653 1.0492 0.75971 1.146 1.5921 1.983 2.1776 1.7999 4.894 2.2252 7.6244 2.3881 1.8639 0.0257 3.7476-0.32714 5.3438-1.3349 0.28789-0.18176 0.55008-0.40134 0.82512-0.60201 1.8302-1.6091 2.5513-3.4748 3.0772-5.7875 0.212-1.4725 0.49412-2.9853 0.34829-4.4808-0.10008-1.0263-0.2366-1.2997-0.53509-2.274-0.81779-1.8385-2.0753-4.0412-4.259-4.4476-0.46461-0.0865-0.94516 2e-3 -1.4177 2e-3 -0.40181 0.0812-0.80362 0.16246-1.2054 0.24368-0.34255 4e-3 -0.33653 0.48868 6e-3 0.48443 0.3279 0.0722 0.65579 0.14434 0.98368 0.21651 0.26622 0.16956 0.54765 0.31732 0.79865 0.50869 1.2461 0.95007 2.207 2.2763 2.8194 3.705 0.20495 0.63387 0.34811 0.96591 0.42302 1.63 0.1464 1.2977-0.11148 2.6141-0.28451 3.8938-0.35783 1.6452-0.87971 3.2635-2.1617 4.4345-1.4395 1.1314-2.7994 1.4985-4.6332 1.5013-2.1611-0.11053-4.3751-0.37526-6.149-1.7279-0.20407-0.18905-0.42787-0.35882-0.61221-0.56715-1.0305-1.1646-1.0812-2.7768-0.94786-4.2413 0.4766-2.864 1.2741-5.6741 3.0235-8.0441 0.29095-0.37605 0.55823-0.77165 0.87283-1.1281 1.1574-1.3114 2.6402-2.218 4.1905-2.9868 0.89779-0.16378 0.66617-1.4334-0.23162-1.2697z"/>
   <path d="m161.36 154.18c-0.10521 0.55795-0.23175 1.1123-0.31563 1.6738-0.19776 1.3238-0.69137 5.7215-0.8069 6.7201-0.57272 4.9508-1.1345 9.9028-1.7097 14.853-0.69137 5.8154-1.2545 11.646-2.0567 17.447-0.19266 0.77111-0.52931 1.7656 2.0791 0.0784 0.33297-0.21538-0.0259-0.793-0.02-1.1895 0.0262-1.7645 0.12116-2.4395 0.17892-4.2911 0.0292-0.93655 0.0328-1.8737 0.0493-2.8106 0.033-0.26377-0.34-0.31049-0.37303-0.0467-0.54713 2.3161-1.0841 4.6348-1.6157 6.9544-0.10625 0.4636-0.60692 1.0268-0.30456 1.394 0.48968 0.59462 1.3852 0.7561 2.1501 0.84701 0.19837 0.0236 0.12507-0.37945 0.1876-0.56918 1.0186-5.8031 1.3482-11.709 2.0975-17.547 0.53919-4.966 1.1058-9.932 1.5402-14.909 0.14315-1.6402 0.41472-5.0069 0.42213-6.8198 2e-3 -0.59612-0.0689-1.1903-0.1034-1.7854 0-0.98934-1.3991-0.98934-1.3991 0z"/>
   <path d="m162.19 154.99c-1.8826 1.383-3.4953 3.0813-5.1081 4.7588-0.0543 0.0618-0.22755 0.13453-0.16288 0.18536 0.39309 0.30899 0.81612 0.69601 1.3155 0.72067 0.3033 0.015 0.4463-0.41196 0.66477-0.62287 0.98106-0.9471 1.933-1.923 2.9146-2.8697 0.31694-0.29685 1.2665-1.2362 1.7044-1.4707 0.17091-0.0915 0.43016-0.23958 0.57167-0.10707 0.0864 0.0809-0.45184 0.47947-0.4398 0.81306 0.0142 0.3927 0.15762 0.76994 0.23643 1.1549 0.11793 0.75205 0.36819 2.5188 0.59112 3.2405 0.21965 0.71109 0.84546 1.9153 1.1902 2.6107 0.0596 0.39565 0.61918 0.3113 0.55954-0.0844 0.0646-0.37804 0.43815-2.5273 0.45198-2.7852 0.0755-1.4078-0.13519-2.2359-0.35726-3.6252-0.33917-1.1134-0.49454-2.4339-1.6894-3.079-1.654-0.8929-2.9725 1.3571-3.8986 2.2746-0.91366 0.98744-1.8424 1.9582-2.8025 2.9009-0.20088 0.19724-0.62919 0.30024-0.61271 0.58129 0.13682 2.3335 0.522 1.589 0.75687 1.1634 1.6406-1.5547 3.2613-3.1295 4.8966-4.6901 0.75658-0.55322-0.0258-1.6232-0.78239-1.07z"/>
   <path d="m144.79 201.7c0.54101 3.6304 1.3912 7.2171 2.2983 10.773 0.15902 0.40461 0.17728 0.89899 0.47706 1.2138 1.24 1.3024 2.1208 1.047 3.3229-0.31566 0.48281-0.54729 0.66288-1.3021 0.9422-1.9764 0.45847-1.1067 0.98134-2.858 1.3437-4.0137-2.61 1.1685 1.5167-2.1613 0.836-1.9593-0.34662 0.10287-0.53617 0.49478-0.85099 0.6726-0.17535 0.099-0.54195-0.0561-0.5877 0.14001-0.0854 0.36594 0.20694 0.72256 0.3016 1.0862 0.11795 0.45312 0.22411 0.90922 0.33616 1.3638 0.28645 1.3274 0.27518 1.2333 0.5164 2.5023 0.12302 0.64721 0.24397 2.5475 1.2692 2.6192 0.70174 0.0491 1.3157-0.49819 1.9736-0.74729 0.25755-0.52413 0.54476-1.0347 0.77265-1.5724 0.40657-0.95922 1.116-3.123 1.4176-4.0714 0.14285-0.44922 1.0514-3.4116 1.1823-3.9855 0.11717-0.5136 0.16497-1.0406 0.24745-1.5609 0.21895-0.72002-0.0106-1.4252 0.0706-2.1428 0.0578-0.0416-1e-3 -0.12342-0.0588-0.0818-0.18465 0.0339-0.38714 0.0156-0.55394 0.10171-0.75725 0.39114-0.87151 0.83691-1.3208 1.5619-0.21683 0.47369-0.46221 0.93532-0.65051 1.4211-0.23033 0.59418-0.40125 1.2097-0.60354 1.814-0.76575 2.2875-1.5304 4.5773-2.4494 6.8091 3.2334 0.44527-0.19019-0.34374 1.5564 0.83349 0.14805 0.0998-0.11038-0.34025-0.14772-0.51484-0.25613-1.1976-0.39105-2.4227-0.70832-3.6084-0.31248-1.2554-0.72693-3.9963-2.233-4.4689-1.8209-0.57139-2.3269 2.0752-2.6919 3.0387-0.45741 1.4426-0.71437 2.3167-1.2471 3.7383-0.17013 0.45396-0.53482 0.86146-0.55096 1.346-7e-3 0.20338 0.36292 0.20293 0.49419 0.35842 0.16003 0.18955 0.40178 0.8963 0.35882 0.65198-0.055-0.3128-0.26434-0.57759-0.39652-0.86638-0.93538-3.5593-1.6109-7.2103-2.9807-10.639-0.33869-1.1915-2.0238-0.71255-1.6851 0.47898z"/>
   <path d="m171.95 202.45c-0.36549 0.12203-0.74491 0.20835-1.0965 0.3661-2.1261 0.95402-3.8753 2.7031-5.1603 4.616-0.33559 0.49957-0.60301 1.0417-0.90452 1.5625-0.81924 1.875-1.3955 3.9556 0.62561 5.3472 0.85184 0.58651 1.5463 0.54731 2.5139 0.65569 0.89422-0.10019 2.72-0.12667 3.3537-0.92437 0.23918-0.30109 0.32465-0.77371 0.41588-1.1368 0.1026-0.0634 0.013-0.20846-0.0896-0.14509-0.13673-0.0597-0.27748-0.1109-0.41021-0.17904-0.16665-0.0856-0.30781-0.22515-0.48652-0.28133-0.81649-0.25666-1.8047 0.39876-2.642 0.34156-0.48104 0.0167-1.7521 0.13803-1.9296-0.57744-0.17769-0.71645 0.21429-1.456 0.43092-2.0867 0.5995-1.0755 0.94925-1.7944 1.7117-2.78 1.0871-1.4052 2.4776-2.5348 3.9975-3.4386 0.9473-0.23343 0.61718-1.5731-0.33012-1.3397z"/>
  </g>
 </g>
</svg>
